<svg width="24" height="24" viewBox="0 0 24 24" fill="none" xmlns="http://www.w3.org/2000/svg">
<path fill-rule="evenodd" clip-rule="evenodd" d="M22.2851 6.54515C22.7399 6.54515 23.1761 6.72324 23.4977 7.04025C23.8193 7.35725 24 7.78721 24 8.23553V17.9468C24 18.3951 23.8193 18.825 23.4977 19.142C23.1761 19.459 22.7399 19.6371 22.2851 19.6371H21.3899V24L17.3153 19.6363H10.8819C10.4271 19.6363 9.99088 19.4582 9.66927 19.1412C9.34766 18.8242 9.16699 18.3942 9.16699 17.9459V16.3637H17.8041C18.4863 16.3637 19.1406 16.0966 19.623 15.6211C20.1054 15.1456 20.3764 14.5006 20.3764 13.8281V6.54515H22.2851ZM16.6182 0C17.073 0 17.5092 0.178093 17.8308 0.495101C18.1524 0.812108 18.3331 1.24206 18.3331 1.69038V12.4919C18.3331 12.7139 18.2888 12.9337 18.2026 13.1388C18.1164 13.3439 17.9901 13.5302 17.8308 13.6872C17.6716 13.8441 17.4825 13.9687 17.2745 14.0536C17.0664 14.1386 16.8434 14.1823 16.6182 14.1823H9.16699L4.07374 19.6363V14.1823H1.7149C1.26008 14.1823 0.823888 14.0042 0.502282 13.6872C0.180676 13.3702 0 12.9402 0 12.4919V1.69038C0 1.24206 0.180676 0.812108 0.502282 0.495101C0.823888 0.178093 1.26008 0 1.7149 0L16.6182 0Z" fill="white"/>
</svg>
