<svg width="18" height="18" viewBox="0 0 18 18" fill="none" xmlns="http://www.w3.org/2000/svg">
<path d="M15.0392 5.00065H12.2076C12.353 4.90571 12.4907 4.7987 12.6194 4.68067C12.8136 4.50063 12.97 4.28085 13.0788 4.03507C13.1877 3.78928 13.2467 3.52278 13.2522 3.25219C13.2606 2.95453 13.2105 2.65822 13.1051 2.3814C12.9996 2.10458 12.8409 1.85309 12.6388 1.64232C12.4367 1.43155 12.1953 1.26595 11.9296 1.15566C11.6638 1.04537 11.3792 0.992711 11.0931 1.00091C10.8331 1.00658 10.5771 1.06798 10.3409 1.18129C10.1048 1.29459 9.89358 1.45737 9.72059 1.65944C9.40269 2.04987 9.15824 2.49909 9 2.98364C8.8421 2.49945 8.59812 2.05049 8.28078 1.66015C8.1077 1.45778 7.89633 1.29477 7.65992 1.18133C7.4235 1.06789 7.16714 1.00647 6.90686 1.00091C6.62068 0.992319 6.33582 1.04466 6.06977 1.15474C5.80371 1.26481 5.56206 1.43028 5.35965 1.64101C5.15723 1.85174 4.99831 2.10329 4.89264 2.38022C4.78696 2.65715 4.73675 2.95363 4.7451 3.25148C4.75054 3.52206 4.80955 3.78857 4.91841 4.03435C5.02728 4.28014 5.18368 4.49991 5.37784 4.67996C5.50646 4.79815 5.64418 4.90517 5.78961 4.99994H2.96078C2.83455 4.99993 2.70956 5.02582 2.59295 5.07612C2.47634 5.12641 2.37039 5.20013 2.28116 5.29306C2.19194 5.38599 2.12118 5.49631 2.07294 5.61771C2.02469 5.73911 1.99991 5.86921 2 6.00058V8.28615C2 8.55135 2.10123 8.80569 2.28141 8.99321C2.46159 9.18074 2.70597 9.28609 2.96078 9.28609H3.09804V14.0001C3.09804 14.2653 3.19926 14.5196 3.37945 14.7071C3.55963 14.8946 3.80401 15 4.05882 15H13.9412C14.196 15 14.4404 14.8946 14.6206 14.7071C14.8007 14.5196 14.902 14.2653 14.902 14.0001V9.28609H15.0392C15.294 9.28609 15.5384 9.18074 15.7186 8.99321C15.8988 8.80569 16 8.55135 16 8.28615V6.00058C16 5.73539 15.8988 5.48105 15.7186 5.29352C15.5384 5.106 15.294 5.00065 15.0392 5.00065ZM9.53324 4.21499C9.68765 3.34933 9.9649 2.66152 10.3355 2.22583C10.4347 2.11192 10.5553 2.02048 10.6899 1.9572C10.8245 1.89392 10.9702 1.86015 11.1178 1.858H11.1556C11.3263 1.85802 11.4953 1.89369 11.6526 1.96289C11.8098 2.03209 11.9521 2.13343 12.0711 2.26089C12.1901 2.38836 12.2832 2.53937 12.3451 2.70498C12.407 2.87059 12.4363 3.04743 12.4314 3.22505C12.429 3.37891 12.3963 3.53061 12.3351 3.6707C12.2739 3.81079 12.1857 3.93626 12.0759 4.03928C11.3402 4.71495 10.0925 4.91708 9.4351 4.97565C9.45226 4.76924 9.48039 4.5064 9.53324 4.21499ZM5.94265 2.24726C6.18218 1.99887 6.50627 1.85897 6.84441 1.858H6.88216C7.02999 1.86042 7.17575 1.89452 7.31036 1.95818C7.44496 2.02183 7.56552 2.11368 7.66451 2.22797C8.31373 2.99364 8.50794 4.29212 8.56422 4.97637C8.36588 4.95851 8.11333 4.9278 7.83608 4.87423C7.00431 4.71495 6.34343 4.42497 5.9248 4.03857C5.81481 3.9358 5.7264 3.8105 5.66511 3.67051C5.60382 3.53052 5.57097 3.37887 5.56863 3.22505C5.56389 3.04418 5.59461 2.86419 5.65892 2.69608C5.72322 2.52797 5.81976 2.37526 5.94265 2.24726ZM2.82353 8.28615V6.00058C2.82353 5.9627 2.83799 5.92637 2.86373 5.89958C2.88947 5.87279 2.92438 5.85774 2.96078 5.85774H8.58824V8.429H2.96078C2.92438 8.429 2.88947 8.41395 2.86373 8.38716C2.83799 8.36037 2.82353 8.32404 2.82353 8.28615ZM3.92157 14.0001V9.28609H8.58824V14.1429H4.05882C4.02242 14.1429 3.98751 14.1279 3.96177 14.1011C3.93603 14.0743 3.92157 14.038 3.92157 14.0001ZM14.0784 14.0001C14.0784 14.038 14.064 14.0743 14.0382 14.1011C14.0125 14.1279 13.9776 14.1429 13.9412 14.1429H9.41177V9.28609H14.0784V14.0001ZM15.1765 8.28615C15.1765 8.32404 15.162 8.36037 15.1363 8.38716C15.1105 8.41395 15.0756 8.429 15.0392 8.429H9.41177V5.85774H15.0392C15.0756 5.85774 15.1105 5.87279 15.1363 5.89958C15.162 5.92637 15.1765 5.9627 15.1765 6.00058V8.28615Z" fill="white"/>
</svg>
