<svg width="15" height="15" viewBox="0 0 15 15" fill="none" xmlns="http://www.w3.org/2000/svg">
<path d="M1.966 13.6178L4.15333 12.8885C4.67 12.7165 4.928 12.6305 5.17066 12.5151C5.45711 12.3785 5.72782 12.2111 5.978 12.0158C6.19 11.8505 6.38266 11.6578 6.76733 11.2731L12.448 5.59315L13.066 4.97515C13.5576 4.48352 13.8338 3.81674 13.8338 3.12148C13.8338 2.42622 13.5576 1.75944 13.066 1.26781C12.5744 0.776191 11.9076 0.5 11.2123 0.5C10.5171 0.5 9.85029 0.776191 9.35866 1.26781L8.74066 1.88581L3.05933 7.56581C2.67466 7.95115 2.482 8.14381 2.31666 8.35581C2.1214 8.606 1.95397 8.87671 1.81733 9.16315C1.702 9.40581 1.616 9.66448 1.444 10.1805L0.714664 12.3678M12.448 5.59315C12.448 5.59315 11.1353 5.51581 9.97666 4.35715C8.818 3.19915 8.74133 1.88581 8.74133 1.88581M1.966 13.6178L1.43133 13.7965C1.3067 13.8383 1.17288 13.8445 1.04492 13.8144C0.916961 13.7843 0.799928 13.7191 0.706978 13.6262C0.614028 13.5332 0.548847 13.4162 0.51876 13.2882C0.488673 13.1603 0.494873 13.0264 0.536664 12.9018L0.71533 12.3671L1.966 13.6178Z" stroke="white"/>
</svg>
