<svg width="18" height="18" viewBox="0 0 18 18" fill="none" xmlns="http://www.w3.org/2000/svg">
<g clip-path="url(#clip0_3_1561)">
<path d="M14.9648 1H10.5322C10.3944 0.999901 10.2622 1.05435 10.1644 1.15144L1.30289 10.0108C1.1089 10.2057 1 10.4696 1 10.7446C1 11.0196 1.1089 11.2834 1.30289 11.4783L5.52163 15.6971C5.71663 15.8911 5.98052 16 6.25559 16C6.53066 16 6.79454 15.8911 6.98954 15.6971L15.8485 6.84133C15.9456 6.74357 16.0001 6.61134 16 6.47355V2.03846C16.0007 1.90218 15.9744 1.7671 15.9226 1.64102C15.8709 1.51494 15.7947 1.40034 15.6985 1.30382C15.6022 1.2073 15.4879 1.13077 15.362 1.07863C15.236 1.02648 15.1011 0.999762 14.9648 1Z" stroke="white" stroke-linecap="round" stroke-linejoin="round"/>
<path d="M12 5C11.8022 5 11.6089 4.94135 11.4444 4.83147C11.28 4.72159 11.1518 4.56541 11.0761 4.38268C11.0004 4.19996 10.9806 3.99889 11.0192 3.80491C11.0578 3.61093 11.153 3.43275 11.2929 3.29289C11.4327 3.15304 11.6109 3.0578 11.8049 3.01922C11.9989 2.98063 12.2 3.00043 12.3827 3.07612C12.5654 3.15181 12.7216 3.27998 12.8315 3.44443C12.9414 3.60888 13 3.80222 13 4C13 4.26522 12.8946 4.51957 12.7071 4.70711C12.5196 4.89464 12.2652 5 12 5Z" fill="white"/>
<path d="M8 17L16.8646 7.83C16.9086 7.78401 16.9433 7.72933 16.9666 7.66921C16.9898 7.60909 17.0012 7.54474 16.9999 7.48V3" stroke="white" stroke-linecap="round" stroke-linejoin="round"/>
</g>
<defs>
<clipPath id="clip0_3_1561">
<rect width="18" height="18" fill="white"/>
</clipPath>
</defs>
</svg>
