<svg width="16" height="16" viewBox="0 0 16 16" fill="none" xmlns="http://www.w3.org/2000/svg">
<path d="M10.8652 6.7785C10.9539 6.69075 11.0022 6.57468 10.9999 6.45475C10.9976 6.33482 10.9449 6.2204 10.8529 6.13559C10.761 6.05077 10.6368 6.00219 10.5068 6.00007C10.3767 5.99796 10.2508 6.04247 10.1556 6.12424L7.16319 8.88323L5.84437 7.6673C5.74919 7.58553 5.62331 7.54102 5.49323 7.54313C5.36316 7.54525 5.23905 7.59383 5.14706 7.67865C5.05507 7.76346 5.00237 7.87788 5.00008 7.99781C4.99778 8.11774 5.04607 8.2338 5.13475 8.32156L6.80838 9.86462C6.90252 9.95131 7.03013 10 7.16319 10C7.29624 10 7.42385 9.95131 7.518 9.86462L10.8652 6.7785Z" fill="white"/>
<path d="M7.851 0.0572875L13.2135 1.8496C13.442 1.92602 13.6412 2.07505 13.7825 2.27534C13.9238 2.47562 13.9999 2.71688 14 2.96452V6.33072C14 10.4782 11.5489 13.5027 7.88935 14.9271C7.63834 15.0243 7.36166 15.0243 7.11065 14.9271C3.4505 13.5033 1 10.4782 1 6.33072V2.96452C1 2.45664 1.31785 2.00639 1.7865 1.8496L7.149 0.0572875C7.37713 -0.0190958 7.62287 -0.0190958 7.851 0.0572875ZM7.44995 1.01274L2.08745 2.80573C2.05481 2.81651 2.02633 2.8377 2.00612 2.86624C1.98591 2.89477 1.97502 2.92919 1.975 2.96452V6.33072C1.975 9.98905 4.107 12.6846 7.4545 13.9864C7.48383 13.9978 7.51617 13.9978 7.5455 13.9864C10.893 12.6846 13.025 9.98973 13.025 6.33072V2.96452C13.0249 2.92921 13.0139 2.89485 12.9938 2.86633C12.9736 2.83781 12.9451 2.8166 12.9125 2.80573L7.55005 1.01274C7.51749 1.00202 7.48251 1.00202 7.44995 1.01274Z" fill="white"/>
</svg>
