<svg width="18" height="18" viewBox="0 0 18 18" fill="none" xmlns="http://www.w3.org/2000/svg">
<path d="M12.5 17C14.4328 17 16 13.6423 16 9.5C16 5.35777 14.4328 2 12.5 2M9 9.5C9 13.6423 7.43276 17 5.5 17C3.56724 17 2 13.6423 2 9.5C2 5.35777 3.56724 2 5.5 2C7.43276 2 9 5.35777 9 9.5Z" stroke="white"/>
<path d="M6 17C7.65665 17 9 13.6423 9 9.5C9 5.35777 7.65665 2 6 2" stroke="white"/>
<path d="M6.14286 2H13M6.14286 17H13M7.28571 9.5C7.28571 11.9855 6.77371 14 6.14286 14C5.512 14 5 11.9855 5 9.5C5 7.0145 5.512 5 6.14286 5C6.77371 5 7.28571 7.0145 7.28571 9.5Z" stroke="white"/>
<path d="M18 4C18 1.79086 16.2091 0 14 0C11.7909 0 10 1.79086 10 4C10 6.20914 11.7909 8 14 8C16.2091 8 18 6.20914 18 4Z" fill="black"/>
<path d="M16.9854 4.6903C16.9932 4.72217 16.9947 4.7553 16.9897 4.78776C16.9848 4.82023 16.9735 4.85136 16.9565 4.87946C16.9395 4.90756 16.9172 4.93202 16.8907 4.95146C16.8643 4.97089 16.8343 4.98496 16.8025 4.99279L16.0335 5.18028L16.2351 5.93368C16.2436 5.96538 16.2458 5.99848 16.2415 6.03104C16.2372 6.06361 16.2265 6.09501 16.2101 6.12344C16.1937 6.15187 16.1719 6.1768 16.1459 6.1968C16.1198 6.21677 16.0901 6.23143 16.0584 6.2399C16.0374 6.24597 16.0157 6.24933 15.9938 6.2499C15.9389 6.24987 15.8856 6.23167 15.842 6.19817C15.7984 6.16467 15.7671 6.11774 15.7529 6.06461L15.512 5.16465L14.2461 4.43311V5.89648L14.9221 6.57302C14.9453 6.59625 14.9637 6.62382 14.9763 6.65418C14.9888 6.68451 14.9953 6.71705 14.9953 6.74988C14.9953 6.78274 14.9888 6.81527 14.9763 6.84561C14.9637 6.87594 14.9453 6.90354 14.9221 6.92677C14.8989 6.94997 14.8714 6.9684 14.8411 6.98097C14.8108 6.99353 14.7783 7 14.7455 7C14.7127 7 14.6802 6.99353 14.6499 6.98097C14.6196 6.9684 14.592 6.94997 14.5688 6.92677L13.9965 6.35333L13.4241 6.92677C13.4009 6.94997 13.3733 6.9684 13.343 6.98097C13.3127 6.99353 13.2802 7 13.2474 7C13.2146 7 13.1821 6.99353 13.1518 6.98097C13.1215 6.9684 13.094 6.94997 13.0708 6.92677C13.0476 6.90354 13.0292 6.87594 13.0166 6.84561C13.0041 6.81527 12.9976 6.78274 12.9976 6.74988C12.9976 6.71705 13.0041 6.68451 13.0166 6.65418C13.0292 6.62382 13.0476 6.59625 13.0708 6.57302L13.7468 5.89648V4.43311L12.4812 5.16465L12.2403 6.06461C12.2261 6.11777 12.1947 6.16477 12.1511 6.19827C12.1075 6.23177 12.054 6.24993 11.9991 6.2499C11.9772 6.24987 11.9553 6.24703 11.9341 6.24147C11.9025 6.233 11.8728 6.21833 11.8467 6.19834C11.8207 6.17837 11.7989 6.15344 11.7824 6.12501C11.766 6.09657 11.7554 6.06517 11.7511 6.03261C11.7468 6.00004 11.749 5.96695 11.7575 5.93525L11.9591 5.18185L11.1901 4.99435C11.1258 4.97852 11.0704 4.93776 11.0361 4.88103C11.0018 4.8243 10.9914 4.75623 11.0072 4.69187C11.023 4.62747 11.0637 4.57197 11.1204 4.53764C11.1771 4.50331 11.245 4.49291 11.3093 4.50874L12.2284 4.73467L13.4971 4L12.2288 3.26693L11.3096 3.49285C11.2902 3.49769 11.2701 3.50009 11.25 3.50002C11.189 3.50009 11.13 3.47772 11.0843 3.43719C11.0386 3.39666 11.0094 3.34079 11.002 3.2801C10.9947 3.21943 11.0098 3.15814 11.0445 3.10787C11.0792 3.05757 11.1311 3.02177 11.1904 3.00724L11.9594 2.81975L11.7578 2.06478C11.7407 2.00072 11.7497 1.93246 11.7828 1.87503C11.8159 1.8176 11.8705 1.7757 11.9344 1.75854C11.9984 1.74139 12.0666 1.75038 12.124 1.78355C12.1813 1.81672 12.2232 1.87135 12.2403 1.93541L12.4812 2.83537L13.7468 3.56692V2.10353L13.0708 1.42699C13.0239 1.38009 12.9976 1.31647 12.9976 1.25013C12.9976 1.21728 13.0041 1.18476 13.0166 1.15441C13.0292 1.12406 13.0476 1.09649 13.0708 1.07326C13.094 1.05003 13.1215 1.03161 13.1518 1.01904C13.1821 1.00647 13.2146 1 13.2474 1C13.3137 1 13.3772 1.02635 13.4241 1.07326L13.9965 1.64667L14.5688 1.07326C14.6157 1.02635 14.6792 1 14.7455 1C14.8117 1 14.8753 1.02635 14.9221 1.07326C14.969 1.12017 14.9953 1.18379 14.9953 1.25013C14.9953 1.31647 14.969 1.38009 14.9221 1.42699L14.2461 2.10353V3.56692L15.5116 2.83537L15.7526 1.93541C15.7697 1.87135 15.8116 1.81672 15.8689 1.78355C15.9263 1.75038 15.9945 1.74139 16.0584 1.75854C16.1224 1.7757 16.177 1.8176 16.2101 1.87503C16.2433 1.93246 16.2522 2.00072 16.2351 2.06478L16.0335 2.81818L16.8025 3.00568C16.8634 3.01871 16.9173 3.05411 16.9535 3.10487C16.9897 3.15567 17.0057 3.21817 16.9982 3.28013C16.9907 3.34206 16.9604 3.39899 16.9131 3.43969C16.8659 3.48035 16.8052 3.50189 16.7429 3.50002C16.7228 3.50009 16.7028 3.49769 16.6832 3.49285L15.7641 3.26693L14.4958 4L15.7641 4.7331L16.6832 4.50718C16.7151 4.49934 16.7482 4.49784 16.7806 4.50281C16.813 4.50778 16.8441 4.51908 16.8722 4.53607C16.9003 4.55307 16.9247 4.57544 16.9441 4.60191C16.9635 4.62837 16.9775 4.6584 16.9854 4.6903Z" fill="white"/>
</svg>
