<svg width="19" height="19" viewBox="0 0 19 19" fill="none" xmlns="http://www.w3.org/2000/svg">
<path d="M16.9286 5.4186H4.68367C4.4807 5.4186 4.28604 5.33897 4.14252 5.19723C3.999 5.05549 3.91837 4.86325 3.91837 4.66279C3.91837 4.46234 3.999 4.27009 4.14252 4.12835C4.28604 3.98661 4.4807 3.90698 4.68367 3.90698H15.0918C15.2136 3.90698 15.3304 3.8592 15.4165 3.77415C15.5026 3.68911 15.551 3.57376 15.551 3.45349C15.551 3.33322 15.5026 3.21787 15.4165 3.13282C15.3304 3.04778 15.2136 3 15.0918 3H4.68367C4.23714 3 3.80889 3.17519 3.49314 3.48702C3.17739 3.79885 3 4.22179 3 4.66279V14.3372C3 14.7782 3.17739 15.2011 3.49314 15.513C3.80889 15.8248 4.23714 16 4.68367 16H16.9286C17.2127 16 17.4853 15.8885 17.6862 15.6901C17.8871 15.4916 18 15.2225 18 14.9419V6.47674C18 6.19611 17.8871 5.92697 17.6862 5.72853C17.4853 5.53009 17.2127 5.4186 16.9286 5.4186ZM17.0816 14.9419C17.0816 14.982 17.0655 15.0204 17.0368 15.0487C17.0081 15.0771 16.9692 15.093 16.9286 15.093H4.68367C4.4807 15.093 4.28604 15.0134 4.14252 14.8717C3.999 14.7299 3.91837 14.5377 3.91837 14.3372V6.14343C4.15515 6.26346 4.41753 6.32591 4.68367 6.32558H16.9286C16.9692 6.32558 17.0081 6.34151 17.0368 6.36986C17.0655 6.3982 17.0816 6.43665 17.0816 6.47674V14.9419ZM14.9388 10.407C14.9388 10.5565 14.8939 10.7026 14.8098 10.8269C14.7257 10.9512 14.6062 11.0481 14.4663 11.1053C14.3265 11.1625 14.1726 11.1774 14.0242 11.1483C13.8757 11.1191 13.7393 11.0471 13.6323 10.9414C13.5253 10.8357 13.4524 10.701 13.4229 10.5544C13.3933 10.4078 13.4085 10.2558 13.4664 10.1177C13.5243 9.97963 13.6224 9.86159 13.7483 9.77854C13.8741 9.69549 14.0221 9.65116 14.1735 9.65116C14.3764 9.65116 14.5711 9.73079 14.7146 9.87253C14.8581 10.0143 14.9388 10.2065 14.9388 10.407Z" fill="white"/>
</svg>
